<?xml version="1.0" standalone="no"?>
<!DOCTYPE svg PUBLIC "-//W3C//DTD SVG 20010904//EN"
 "http://www.w3.org/TR/2001/REC-SVG-20010904/DTD/svg10.dtd">
<svg version="1.0" xmlns="http://www.w3.org/2000/svg"
 width="225.000000pt" height="225.000000pt" viewBox="0 0 225.000000 225.000000"
 preserveAspectRatio="xMidYMid meet">

<g transform="translate(0.000000,225.000000) scale(0.100000,-0.100000)"
fill="#000000" stroke="none">
<path d="M1017 1520 c-92 -23 -169 -88 -209 -175 -26 -58 -31 -166 -9 -228 20
-58 82 -129 142 -162 50 -28 61 -30 144 -28 50 0 103 3 120 5 26 3 35 -5 92
-82 35 -47 72 -96 82 -110 18 -24 20 -25 47 -8 54 31 53 38 -28 149 -41 57
-78 109 -82 116 -4 7 6 30 22 52 40 55 56 118 50 199 -8 111 -63 194 -162 242
-69 34 -147 45 -209 30z m154 -55 c103 -35 169 -130 169 -242 0 -77 -15 -117
-67 -173 -161 -180 -465 -45 -440 196 17 166 181 272 338 219z"/>
</g>
</svg>
